<svg width="1312" height="463" fill="none" xmlns="http://www.w3.org/2000/svg"><g style="mix-blend-mode:difference" fill="#FEA55D"><path d="M.111.5v143h42.5V124l47.5 19h230V88.5l-122-45.5h79.5v16.5h42.5V.5h-320Zm42.5 79V43h34.5l154 57.5h-132.5l-56-21ZM330.678.5v59h42.5V43h79l-121.5 45.5V143h230l47.5-18.5V143h42.5V.5h-320Zm243 42.5h34.5v36.5l-56 21h-133l154.5-57.5ZM661.244.5v117l55 25.5h265V84h-42.5v16.5h-213.5l-21.5-10V43h235v16.5h42.5V.5h-320ZM1310.82 143V84h-42.5v16.5h-25.5l-116-42 18.5-15.5 166-1V.5h-181.5l-60 50.5h-36V.5h-42.498v142h42.498v-49h64.5l136.5 49.5h76.5-.5ZM330.434 160.5V247l133.5 56h186.5v-59h-42.5v16.5h-135l-92-39.5h269.5v-42.5h-277.5v-18h-42.5ZM661 160.5V303h320V160.5H661Zm42.5 42.5h235l.5 57.5H703.5V203ZM165.395 320.5V407l133.5 56h186.5v-59h-42.5v16.5h-135l-92-39.5h269.5v-42.5h-277.5v-18h-42.5ZM495.961 320.5V463h320V320.5h-320Zm42.5 42.5h235l.5 57.5h-235.5V363ZM826.527 320.5V463h42.5v-26.5h122l155.503-56v-60H826.527Zm42.5 73.5v-31h201.003l-86.503 31h-114.5Z"/></g></svg>