<svg width="1800" height="202" fill="none" xmlns="http://www.w3.org/2000/svg"><g style="mix-blend-mode:difference" fill="#FEA55D"><path d="M-9.79.37h-27.03V91H67.166l99.216-41.34V.37h-27.03v31.482L61.76 63.97H-9.79V.37ZM172.799.37V91h27.03V27.082h64.236l85.224 41.022V91h27.03V51.568L270.425.37h-97.626ZM382.729.37V91h27.348V59.836h105.576l43.248 20.988V91h27.348V64.606l-63.6-32.118H410.077V.37h-27.348ZM592.658.37v74.412L627.638 91h168.54V53.476h-27.03V63.97H633.362l-9.54-4.452h117.342v-27.03H619.688V27.4h149.46v10.494h27.03V.37h-203.52ZM802.588.37v37.524h27.03V27.4h50.244l-77.274 28.938V91h146.28l30.21-11.766V91h27.032V.37H802.588ZM957.136 27.4h21.942v23.214L943.462 63.97h-84.588l98.262-36.57ZM1012.83.37v53.742L1100.28 91h116.07V63.652h-110.67l-65.5-27.984v-7.95h87.13V.37h-114.48ZM1223.07.37v55.014L1307.97 91h118.62V53.476h-27.03V63.97h-85.86l-58.51-25.122h171.4v-27.03H1250.1V.37h-27.03ZM1433.31.37V91h27.35V59.836h105.57l43.25 20.988V91h27.35V64.606l-63.6-32.118h-112.57V.37h-27.35ZM1819.41.37v24.168H1709.7l-39.43-17.172V.37h-27.03v24.486l60.42 26.712h115.75V63.97h-131.97l-17.17-8.586V44.89h-27.03v26.076L1680.13 91h166.31V.37h-27.03ZM-36.82 110.37V201H166.7v-90.63H-36.82Zm27.03 27.03h149.46l.318 36.57H-9.79V137.4ZM173.42 110.37v90.948h27.03v-12.402L230.66 201h146.28v-34.662L299.348 137.4h50.562v10.494h27.03V110.37H173.42Zm27.03 50.244V137.4h21.942l97.944 36.57h-84.27l-35.616-13.356ZM587.498 110.37h-203.52v29.574l63.282 29.574h73.458l8.904 4.452H411.008v-10.494h-27.03V201h203.52v-29.574l-60.738-28.938h-73.458l-11.13-5.088h118.296v10.176h27.03V110.37ZM594.211 110.37v74.412L629.191 201h168.54v-37.524h-27.03v10.494H634.915l-9.54-4.452h117.342v-27.03H621.241V137.4h149.46v10.494h27.03V110.37h-203.52ZM1007.98 110.37H804.459v29.574l63.282 29.574h73.458l8.904 4.452H831.489v-10.494h-27.03V201h203.521v-29.574l-60.739-28.938h-73.458l-11.13-5.088h118.296v10.176h27.031V110.37ZM1218.53 110.37h-203.52v29.574l63.28 29.574h73.46l8.9 4.452h-118.61v-10.494h-27.03V201h203.52v-29.574l-60.74-28.938h-73.46l-11.13-5.088h118.3v10.176h27.03V110.37ZM1401.41 110.37v10.494l-40.7 21.624h-73.46l-62.01 31.8V201h27.35v-10.494l41.66-20.67h71.23l62.96-32.754V110.37h-27.03ZM1435.17 110.37V201h203.52v-90.63h-203.52Zm27.03 27.03h149.46l.32 36.57H1462.2V137.4ZM1645.41 110.37V201h27.03v-63.918h64.24l85.22 41.022V201h27.03v-39.432l-105.89-51.198h-97.63Z"/></g></svg>