<?xml version="1.0" standalone="no"?>
<!DOCTYPE svg PUBLIC "-//W3C//DTD SVG 20010904//EN"
 "http://www.w3.org/TR/2001/REC-SVG-20010904/DTD/svg10.dtd">
<svg version="1.0" xmlns="http://www.w3.org/2000/svg"
 width="1024.000000pt" height="1024.000000pt" viewBox="0 0 1024.000000 1024.000000"
 preserveAspectRatio="xMidYMid meet">
<metadata>
Created by potrace 1.14, written by Peter Selinger 2001-2017
</metadata>
<g transform="translate(0.000000,1024.000000) scale(0.100000,-0.100000)"
fill="#000000" stroke="none">
<path d="M0 5120 l0 -3880 5120 0 5120 0 0 2278 c0 1253 -3 2281 -6 2284 -3 3
-17 3 -31 -1 -15 -4 -48 -4 -75 -1 -27 4 -51 3 -54 -2 -3 -5 -12 -4 -20 3 -8
6 -14 7 -14 2 0 -6 -18 -7 -45 -3 -24 4 -49 4 -55 0 -6 -4 -31 -4 -56 0 -24 4
-47 3 -50 -2 -3 -5 -12 -4 -20 3 -9 7 -14 8 -14 1 0 -7 -10 -8 -28 -3 -15 4
-38 5 -52 1 -13 -3 -46 -3 -72 0 -27 4 -48 3 -48 -2 0 -4 -10 -4 -22 1 -13 5
-32 5 -43 1 -11 -4 -32 -4 -46 0 -15 4 -32 4 -39 0 -7 -5 -23 -4 -36 0 -12 5
-24 6 -27 3 -3 -3 -35 -5 -71 -4 -36 1 -74 1 -83 1 -10 0 -31 0 -48 1 -16 0
-36 0 -42 0 -16 -1 -36 -1 -68 -1 -14 0 -31 -1 -37 -1 -11 -1 -34 0 -140 1
-10 0 -26 0 -35 0 -10 0 -42 0 -71 0 -30 0 -58 2 -62 5 -5 3 -12 1 -15 -5 -5
-8 -11 -7 -21 1 -8 6 -14 8 -14 3 0 -8 -59 -9 -145 -4 -22 1 -16 5 65 38 19 7
46 20 60 27 14 7 28 14 33 14 4 0 24 8 45 17 20 8 114 47 207 85 94 39 179 74
190 79 66 30 114 50 118 50 3 0 21 7 41 15 20 8 39 16 43 16 5 0 13 4 18 9 6
4 57 27 115 50 58 23 119 48 135 55 81 37 372 157 386 160 9 2 25 8 35 14 11
6 62 29 114 51 l95 39 3 1240 2 1241 -681 0 -681 0 3 -34 c2 -19 0 -38 -3 -42
-4 -4 -3 -15 2 -25 7 -12 7 -20 0 -24 -8 -5 -8 -11 -1 -19 6 -7 8 -16 5 -19
-8 -8 -9 -85 -1 -93 3 -3 2 -17 -3 -30 -5 -13 -6 -25 -2 -28 9 -5 7 -74 -2
-83 -3 -4 -1 -12 5 -19 7 -8 7 -14 -1 -19 -7 -4 -7 -12 0 -25 6 -11 6 -21 1
-25 -6 -3 -6 -17 -1 -35 5 -18 5 -32 -1 -35 -5 -4 -5 -14 1 -25 7 -13 7 -21 0
-25 -8 -5 -8 -11 -1 -19 6 -7 8 -16 5 -19 -8 -8 -9 -85 -1 -93 3 -3 2 -17 -3
-30 -5 -13 -6 -25 -2 -28 9 -5 7 -74 -2 -83 -3 -4 -1 -12 5 -19 7 -8 7 -14 -1
-19 -7 -4 -7 -12 0 -25 6 -11 6 -21 1 -25 -6 -3 -6 -17 -1 -35 5 -18 5 -32 -1
-35 -5 -4 -5 -14 1 -25 7 -13 7 -21 0 -25 -8 -5 -8 -11 -1 -19 6 -7 8 -16 5
-19 -8 -8 -9 -85 -1 -93 3 -3 2 -17 -3 -30 -5 -13 -6 -25 -1 -28 4 -3 5 -28 1
-56 -4 -27 -3 -50 1 -50 8 0 4 -33 -5 -48 -2 -4 -1 -14 3 -21 5 -7 5 -28 1
-47 -4 -19 -5 -34 -1 -34 5 0 5 -16 2 -36 -6 -36 -8 -37 -126 -86 -66 -27
-131 -53 -145 -59 -14 -5 -32 -12 -40 -16 -8 -3 -17 -7 -20 -8 -15 -5 -68 -27
-85 -35 -53 -25 -372 -152 -382 -153 -7 0 -13 -4 -13 -8 0 -4 -12 -10 -27 -14
-15 -3 -43 -14 -62 -22 -20 -9 -38 -17 -41 -18 -18 -6 -49 -19 -77 -31 -17 -8
-34 -14 -37 -14 -3 0 -30 -11 -60 -25 -30 -14 -60 -25 -66 -25 -7 0 -24 -7
-38 -15 -15 -8 -101 -44 -192 -81 -91 -36 -178 -72 -195 -79 -16 -8 -66 -28
-110 -45 -44 -18 -93 -38 -110 -45 -16 -7 -113 -47 -215 -88 -323 -131 -464
-189 -505 -207 -22 -9 -66 -27 -97 -38 -32 -12 -66 -26 -75 -31 -10 -5 -49
-21 -88 -36 -38 -15 -83 -34 -100 -43 -16 -9 -32 -16 -35 -15 -3 1 -21 -6 -40
-14 -19 -8 -57 -23 -85 -34 -27 -11 -63 -26 -80 -33 -16 -7 -64 -26 -105 -42
-41 -16 -77 -31 -80 -34 -3 -3 -34 -17 -70 -29 -36 -13 -83 -31 -105 -41 -53
-23 -178 -75 -185 -76 -3 0 -22 -8 -42 -17 -21 -10 -40 -17 -43 -17 -4 0 -30
-11 -60 -25 -29 -14 -69 -28 -87 -31 -42 -6 -137 -6 -148 1 -5 3 -12 1 -15 -5
-5 -8 -11 -7 -21 1 -8 6 -14 7 -14 2 0 -6 -18 -7 -45 -3 -24 4 -49 4 -55 0 -6
-4 -31 -4 -56 0 -24 4 -47 3 -50 -2 -3 -5 -12 -4 -20 3 -9 7 -14 8 -14 1 0 -7
-10 -8 -27 -3 -16 4 -39 5 -53 1 -13 -3 -46 -3 -73 0 -26 4 -50 3 -53 -2 -3
-5 -12 -4 -20 3 -8 6 -14 7 -14 2 0 -6 -18 -7 -45 -3 -24 4 -49 4 -55 0 -6 -4
-31 -4 -56 0 -24 4 -47 3 -50 -2 -3 -5 -12 -4 -20 3 -9 7 -14 8 -14 1 0 -7
-10 -8 -29 -2 -16 4 -32 6 -35 3 -3 -3 -31 -5 -63 -4 -124 4 -153 4 -160 -2
-3 -4 -12 -2 -20 4 -9 8 -13 8 -13 1 0 -7 -10 -8 -27 -3 -16 4 -39 5 -53 1
-13 -3 -46 -3 -73 0 -26 4 -50 3 -53 -2 -3 -5 -12 -4 -20 3 -8 6 -14 7 -14 2
0 -6 -18 -7 -45 -3 -24 4 -49 4 -55 0 -6 -4 -31 -4 -56 0 -24 4 -47 3 -50 -2
-3 -5 -12 -4 -20 3 -9 7 -14 8 -14 1 0 -7 -10 -8 -27 -3 -16 4 -39 5 -53 1
-13 -3 -46 -3 -73 0 -26 4 -50 3 -53 -2 -3 -5 -12 -4 -20 3 -8 6 -14 7 -14 2
0 -6 -18 -7 -45 -3 -24 4 -49 4 -55 0 -6 -4 -31 -4 -56 0 -24 4 -47 3 -50 -2
-3 -5 -12 -4 -20 3 -9 7 -14 8 -14 1 0 -7 -10 -8 -29 -2 -16 4 -32 6 -35 3 -3
-3 -31 -5 -63 -4 -124 4 -153 4 -160 -2 -3 -4 -12 -2 -20 4 -9 8 -13 8 -13 1
0 -7 -10 -8 -27 -3 -16 4 -39 5 -53 1 -13 -3 -46 -3 -73 0 -26 4 -50 3 -53 -2
-3 -5 -12 -4 -20 3 -8 6 -14 7 -14 2 0 -6 -18 -7 -45 -3 -24 4 -49 4 -55 0 -6
-4 -31 -4 -56 0 -24 4 -47 3 -50 -2 -3 -5 -12 -4 -20 3 -9 7 -14 8 -14 1 0 -7
-10 -8 -27 -3 -16 4 -39 5 -53 1 -13 -3 -46 -3 -73 0 -26 4 -50 3 -53 -2 -3
-5 -12 -4 -20 3 -8 6 -14 7 -14 2 0 -6 -18 -7 -45 -3 -24 4 -49 4 -55 0 -6 -4
-31 -4 -56 0 -24 4 -47 3 -50 -2 -3 -5 -12 -4 -20 3 -8 7 -14 7 -14 1 0 -6
-12 -7 -33 -2 -18 4 -43 3 -55 -1 -18 -7 -23 -4 -28 16 -3 14 -4 32 -1 40 4 8
3 16 -1 19 -9 5 -7 74 2 83 3 4 1 12 -5 19 -7 8 -7 14 1 19 7 4 7 12 0 25 -6
11 -6 21 -1 25 6 3 6 17 1 35 -5 18 -5 32 1 35 5 4 5 14 -1 25 -7 13 -7 21 0
25 8 5 8 11 1 19 -6 7 -8 16 -5 19 8 8 9 85 1 93 -3 3 -2 17 3 30 5 13 5 26 1
28 -5 3 -5 23 -1 45 4 22 4 45 -1 52 -4 7 -3 21 2 30 5 10 5 20 1 23 -5 3 -6
26 -2 50 4 25 3 51 -1 58 -4 6 -3 20 2 29 5 10 5 20 1 23 -5 3 -6 26 -2 50 4
25 3 51 -1 58 -4 6 -3 20 2 29 5 10 5 20 1 23 -5 3 -6 26 -2 50 4 25 3 51 -1
58 -4 6 -3 20 2 29 5 10 5 20 1 23 -5 3 -6 26 -2 50 4 25 3 51 -1 58 -4 6 -3
20 2 29 5 10 5 20 1 23 -5 3 -6 26 -2 50 4 25 3 51 -1 58 -4 6 -3 20 2 29 5
10 5 20 1 23 -5 3 -6 26 -2 50 4 25 3 51 -1 58 -4 6 -3 20 2 29 5 10 5 20 1
23 -5 3 -6 26 -2 50 4 25 3 51 -1 58 -4 6 -4 19 1 29 5 9 6 19 3 23 -8 8 -8
85 1 93 3 3 1 12 -5 19 -7 8 -7 14 1 19 7 4 7 12 0 25 -6 11 -6 21 -1 25 6 3
6 17 1 35 -5 18 -5 32 1 35 5 4 5 14 -1 25 -7 13 -7 21 0 25 8 5 8 11 1 19 -6
7 -8 16 -5 19 8 8 9 85 1 93 -3 3 -2 17 3 30 5 13 6 25 2 28 -9 5 -7 74 2 83
3 4 1 12 -5 19 -7 8 -7 14 1 19 7 4 7 12 0 25 -6 11 -6 21 -1 25 6 3 6 17 1
35 -5 18 -5 32 1 35 5 4 5 14 -1 25 -7 13 -7 21 0 25 8 5 8 11 1 19 -6 7 -8
16 -5 19 8 8 9 85 1 93 -3 3 -2 17 3 30 5 13 6 25 2 28 -9 5 -7 74 2 83 3 4 1
12 -5 19 -7 8 -7 14 1 19 7 4 7 12 0 25 -6 10 -6 21 -2 24 5 3 7 20 5 38 -2
18 -4 50 -3 71 0 20 0 45 0 55 0 9 0 29 0 45 l0 27 -680 0 -680 0 0 -3880z
m1400 -682 c0 7 10 8 28 3 15 -4 38 -5 52 -1 13 3 46 3 73 0 26 -4 50 -3 53 2
3 5 12 4 20 -3 8 -6 14 -7 14 -2 0 6 18 7 45 3 24 -4 49 -4 55 0 6 4 31 4 56
0 24 -4 47 -3 50 2 3 5 12 4 20 -3 9 -7 14 -8 14 -1 0 7 10 8 28 3 15 -4 38
-5 52 -1 13 3 46 3 73 0 26 -4 50 -3 53 2 3 5 12 4 20 -3 8 -6 14 -7 14 -2 0
6 18 7 45 3 24 -4 49 -4 55 0 6 4 31 4 56 0 24 -4 47 -3 50 2 3 5 12 4 20 -3
9 -7 14 -8 14 -1 0 7 10 8 29 2 16 -4 32 -6 35 -3 3 3 31 5 63 4 124 -4 153
-4 160 2 3 4 12 2 20 -4 9 -8 13 -8 13 -1 0 7 10 8 28 3 15 -4 38 -5 52 -1 13
3 46 3 73 0 26 -4 50 -3 53 2 3 5 12 4 20 -3 8 -6 14 -7 14 -2 0 6 18 7 45 3
24 -4 49 -4 55 0 6 4 31 4 56 0 24 -4 47 -3 50 2 3 5 12 4 20 -3 9 -7 14 -8
14 -1 0 7 10 8 28 3 15 -4 38 -5 52 -1 13 3 46 3 73 0 26 -4 50 -3 53 2 3 5
12 4 20 -3 8 -6 14 -7 14 -2 0 6 18 7 45 3 24 -4 49 -4 55 0 6 4 31 4 56 0 24
-4 47 -3 50 2 3 5 12 4 20 -3 9 -7 14 -8 14 -1 0 7 10 8 29 2 16 -4 32 -6 35
-3 3 3 31 5 63 4 124 -4 153 -4 160 2 3 4 12 2 20 -4 9 -8 13 -8 13 -1 0 7 10
8 28 3 15 -4 38 -5 52 -1 13 3 46 3 73 0 26 -4 50 -3 53 2 3 5 12 4 20 -3 8
-6 14 -7 14 -2 0 6 18 7 45 3 24 -4 49 -4 55 0 6 4 31 4 56 0 24 -4 47 -3 50
2 3 5 12 4 20 -3 9 -7 14 -8 14 -1 0 7 10 8 28 3 15 -4 38 -5 52 -1 13 3 46 3
73 0 26 -4 50 -3 53 2 3 5 12 4 20 -3 8 -6 14 -7 14 -2 0 6 18 7 45 3 24 -4
49 -4 55 0 6 4 31 4 56 0 24 -4 47 -3 50 2 3 5 12 4 20 -3 9 -7 14 -8 14 -1 0
7 10 8 27 3 16 -4 39 -5 53 -1 13 3 46 3 72 0 27 -4 48 -3 48 2 0 4 10 4 23
-1 12 -5 31 -5 42 -1 11 4 32 4 46 0 15 -4 32 -4 39 0 7 5 23 4 36 0 12 -5 24
-6 27 -3 3 3 35 5 71 4 37 -1 74 -1 84 -1 9 0 31 0 47 -1 28 0 37 0 68 2 6 0
21 0 32 -1 11 0 58 -1 104 -1 46 0 88 -2 92 -5 4 -2 11 0 14 6 5 8 11 7 21 -1
9 -7 14 -8 14 -1 0 7 10 8 28 3 15 -4 38 -5 52 -1 13 3 46 3 73 0 26 -4 50 -3
53 2 3 5 12 4 20 -3 8 -6 14 -7 14 -2 0 6 18 7 45 3 24 -4 49 -4 55 0 6 4 31
4 56 0 24 -4 47 -3 50 2 3 5 12 4 20 -3 9 -7 14 -8 14 -1 0 7 10 8 28 3 15 -4
38 -5 52 -1 13 3 46 3 73 0 26 -4 50 -3 53 2 3 5 12 4 20 -3 8 -6 14 -7 14 -2
0 6 18 7 45 3 24 -4 49 -4 55 0 6 4 31 4 56 0 24 -4 47 -3 50 2 3 5 12 4 20
-3 9 -7 14 -8 14 -1 0 7 10 8 28 3 15 -4 38 -5 52 -1 13 3 46 3 72 0 27 -4 48
-3 48 2 0 4 10 4 23 -1 12 -5 31 -5 42 -1 11 4 32 4 46 0 15 -4 32 -4 39 0 7
5 23 4 36 0 12 -5 24 -6 27 -3 3 3 35 5 71 4 36 -1 74 -1 84 -1 9 0 31 0 47
-1 17 0 36 0 43 0 15 1 35 1 67 1 14 0 31 1 38 1 10 1 33 0 140 -1 9 0 25 0
35 0 9 0 41 0 70 0 30 0 58 -2 62 -5 5 -3 12 -1 15 5 5 8 11 7 21 -1 9 -7 14
-8 14 -1 0 7 10 8 27 3 16 -4 39 -5 53 -1 13 3 46 3 73 0 26 -4 50 -3 53 2 3
5 12 4 20 -3 8 -6 14 -7 14 -2 0 6 18 7 44 3 25 -4 51 -3 60 2 8 5 17 4 20 -1
4 -6 18 -6 35 -1 15 4 34 4 41 0 7 -4 24 -5 38 -1 14 4 47 4 74 1 27 -4 51 -3
54 2 3 5 12 4 20 -3 9 -7 14 -8 14 -1 0 7 10 8 28 3 15 -4 38 -5 52 -1 13 3
46 3 73 0 26 -4 50 -3 52 0 7 11 54 3 70 -10 10 -9 12 -17 5 -30 -5 -9 -7 -20
-3 -23 8 -9 8 -171 -1 -185 -4 -7 -4 -12 1 -12 4 0 9 -138 9 -308 1 -169 3
-523 5 -787 l4 -480 -22 1 c-13 0 -23 -3 -23 -7 0 -4 -13 -4 -29 1 -16 4 -31
6 -33 4 -8 -7 -86 -10 -104 -3 -11 3 -29 3 -41 -2 -15 -5 -23 -5 -23 2 0 6 -6
7 -16 1 -9 -5 -34 -6 -55 -2 -21 4 -39 4 -39 0 0 -7 -70 -4 -77 4 -3 3 -16 1
-29 -4 -16 -6 -24 -6 -24 1 0 6 -6 6 -18 0 -10 -5 -24 -6 -31 -1 -8 4 -25 5
-40 1 -28 -7 -90 -6 -98 3 -3 2 -16 1 -29 -4 -16 -6 -24 -6 -24 1 0 6 -6 7
-16 1 -9 -5 -34 -6 -55 -2 -21 4 -39 4 -39 0 0 -7 -70 -4 -77 4 -3 3 -16 1
-29 -4 -16 -6 -24 -6 -24 1 0 6 -6 6 -18 0 -10 -5 -24 -6 -31 -1 -8 4 -25 5
-40 1 -14 -3 -39 -5 -56 -4 -16 2 -43 3 -60 2 -30 0 -44 0 -67 2 -7 0 -24 0
-38 0 -14 -1 -32 -1 -40 -1 -8 1 -24 1 -35 0 -11 0 -27 0 -35 0 -8 1 -46 1
-85 1 -38 -1 -77 0 -85 0 -8 0 -26 0 -40 0 -14 -1 -32 -1 -40 -1 -8 1 -24 1
-35 0 -11 0 -27 0 -35 0 -8 1 -46 1 -85 1 -38 -1 -77 0 -85 0 -8 0 -26 0 -40
0 -14 -1 -32 -1 -40 -1 -8 1 -24 1 -35 0 -11 0 -27 0 -35 0 -8 1 -46 1 -85 1
-38 -1 -77 0 -85 0 -8 0 -26 0 -40 0 -14 -1 -32 -1 -40 -1 -8 1 -24 1 -35 0
-11 0 -27 0 -35 0 -8 1 -46 1 -85 1 -38 -1 -77 0 -85 0 -8 0 -26 0 -40 0 -14
-1 -32 -1 -40 -1 -8 1 -24 1 -35 0 -11 0 -27 0 -35 0 -8 1 -46 1 -85 1 -38 -1
-77 0 -85 0 -8 0 -26 0 -40 0 -14 -1 -32 -1 -40 -1 -8 1 -24 1 -35 0 -11 0
-27 0 -35 0 -8 1 -46 1 -85 1 -38 -1 -77 0 -85 0 -8 0 -26 0 -40 0 -14 -1 -32
-1 -40 -1 -8 1 -24 1 -35 0 -11 0 -27 0 -35 0 -8 1 -48 0 -88 -1 -40 -1 -75 1
-78 4 -3 3 -18 2 -33 -3 -16 -4 -34 -4 -41 0 -7 5 -23 5 -35 0 -12 -5 -27 -5
-35 0 -7 4 -24 5 -38 1 -14 -4 -46 -4 -71 -1 -26 3 -58 3 -71 0 -14 -4 -37 -3
-52 1 -16 4 -28 4 -28 0 0 -8 -69 -5 -77 3 -3 3 -16 1 -29 -4 -16 -6 -24 -6
-24 1 0 6 -6 6 -18 0 -10 -5 -24 -6 -31 -1 -8 4 -25 5 -40 1 -28 -7 -90 -6
-98 3 -3 2 -16 1 -29 -4 -16 -6 -24 -6 -24 1 0 6 -6 7 -16 1 -9 -5 -34 -6 -55
-2 -21 4 -39 4 -39 0 0 -7 -70 -4 -77 4 -3 3 -16 1 -29 -4 -16 -6 -24 -6 -24
1 0 6 -6 6 -18 0 -10 -5 -24 -6 -31 -1 -8 4 -25 5 -40 1 -28 -7 -90 -6 -98 3
-3 2 -16 1 -29 -4 -16 -6 -24 -6 -24 1 0 6 -6 7 -16 1 -9 -5 -34 -6 -55 -2
-21 4 -39 4 -39 0 0 -7 -70 -4 -77 4 -3 3 -16 1 -29 -4 -16 -6 -24 -6 -24 1 0
6 -6 6 -18 0 -10 -5 -24 -6 -31 -1 -8 4 -25 5 -40 1 -28 -7 -90 -6 -98 3 -3 2
-16 1 -29 -4 -16 -6 -24 -6 -24 1 0 6 -6 7 -16 1 -9 -5 -34 -6 -55 -2 -21 4
-39 4 -39 0 0 -7 -70 -4 -77 4 -3 3 -16 1 -29 -4 -16 -6 -24 -6 -24 1 0 6 -6
6 -18 0 -10 -5 -24 -6 -31 -1 -8 4 -25 5 -40 1 -28 -7 -90 -6 -98 3 -3 2 -16
1 -29 -4 -16 -6 -24 -6 -24 1 0 6 -6 7 -16 1 -9 -5 -34 -6 -55 -2 -21 4 -39 4
-39 0 0 -7 -70 -4 -77 4 -3 3 -16 1 -29 -4 -16 -6 -24 -6 -24 1 0 6 -6 6 -18
0 -10 -5 -24 -6 -31 -1 -8 4 -25 5 -40 1 -28 -7 -90 -6 -98 3 -3 2 -16 1 -29
-4 -16 -6 -24 -6 -24 1 0 6 -6 7 -16 1 -9 -5 -34 -6 -55 -2 -21 4 -39 4 -39 1
0 -7 -111 -4 -142 3 -10 2 -18 1 -18 -3 0 -8 -69 -5 -77 3 -3 3 -16 1 -29 -4
-16 -6 -24 -6 -24 1 0 6 -6 6 -18 0 -10 -5 -24 -6 -31 -1 -8 4 -25 5 -40 1
-28 -7 -90 -6 -98 3 -3 2 -16 1 -29 -4 -16 -6 -24 -6 -24 1 0 6 -6 7 -16 1 -9
-5 -34 -6 -55 -2 -21 4 -39 4 -39 0 0 -7 -70 -4 -77 4 -3 3 -16 1 -29 -4 -16
-6 -24 -6 -24 1 0 6 -6 6 -18 0 -10 -5 -24 -6 -31 -1 -8 4 -25 5 -40 1 -28 -7
-90 -6 -98 3 -3 2 -16 1 -29 -4 -16 -6 -24 -6 -24 1 0 6 -6 7 -16 1 -9 -5 -34
-6 -55 -2 -21 4 -39 4 -39 0 0 -6 -46 -4 -85 4 -11 3 -23 5 -27 5 -4 1 -3 12
2 26 5 14 6 25 2 25 -5 0 -6 22 -2 50 3 27 3 55 -1 62 -4 6 -3 20 2 29 5 10 5
20 1 23 -5 3 -6 26 -2 50 4 25 3 51 -1 58 -4 6 -3 20 2 29 5 10 5 20 1 23 -5
3 -6 26 -2 50 4 25 3 51 -1 58 -4 6 -3 20 2 29 5 10 5 20 1 23 -5 3 -6 26 -2
50 4 25 3 51 -1 58 -4 6 -3 20 2 29 5 10 5 20 1 23 -5 3 -6 26 -2 50 4 25 3
51 -1 58 -4 6 -3 20 2 29 5 10 5 20 1 23 -5 3 -6 26 -2 50 4 25 3 51 -1 58 -4
6 -3 20 2 29 5 10 5 20 1 23 -5 3 -6 26 -2 50 4 25 3 51 -1 58 -4 6 -3 20 2
29 5 10 5 20 1 23 -5 3 -6 28 -2 56 4 28 3 53 -1 56 -5 3 -4 16 1 29 5 13 6
26 2 29 -9 5 -7 74 2 83 3 4 1 12 -5 19 -7 8 -7 14 1 19 7 4 7 12 0 25 -6 11
-6 21 -1 25 6 3 6 17 1 35 -5 18 -5 32 1 35 5 4 5 14 -1 25 -7 13 -7 21 0 25
8 5 8 11 1 19 -6 7 -8 16 -5 19 9 8 9 85 1 93 -3 4 -2 14 3 24 5 10 7 20 4 23
-3 3 -3 11 1 17 5 8 11 8 21 -1 9 -7 14 -8 14 -1z"/>
</g>
</svg>
